<svg width="451" height="116" viewBox="0 0 451 116" fill="none" xmlns="http://www.w3.org/2000/svg">
<path opacity="0.999" fill-rule="evenodd" clip-rule="evenodd" d="M63.3364 0C65.0916 0.539496 66.5229 1.56696 67.6303 3.08283C78.5394 17.3482 83.2372 33.4965 81.7233 51.5273C81.3122 55.1543 80.7251 58.7511 79.9617 62.3172C78.8913 66.1904 77.8636 70.0805 76.8788 73.988C75.1639 82.7388 74.797 91.5469 75.7778 100.412C76.2063 103.452 76.7201 106.461 77.3192 109.441C75.1143 110.8 72.839 112.048 70.493 113.184C68.4189 106.048 67.3546 98.7444 67.3 91.2738C67.4619 80.7863 69.1134 70.5469 72.2546 60.5556C75.7534 45.5942 74.212 31.2075 67.6303 17.396C66.7674 16.0373 65.9599 14.6428 65.2081 13.2121C64.5416 12.182 63.8076 11.2279 63.0061 10.3495C61.5151 11.3259 60.0838 12.3901 58.7121 13.5424C62.7304 19.1246 65.4096 25.327 66.7495 32.1495C69.4118 45.0521 68.531 57.6771 64.1071 70.0243C61.5543 80.4716 60.967 91.0413 62.3455 101.733C63.1375 105.836 64.0919 109.873 65.2081 113.845C61.4279 111.386 57.6479 108.927 53.8677 106.468C51.262 104.303 48.6562 102.137 46.0505 99.9718C37.3743 89.1496 33.7044 76.7447 35.0404 62.7577C35.4354 59.8734 35.9492 57.0108 36.5818 54.1698C39.6213 45.5601 41.3463 36.6787 41.7566 27.5253C41.6654 25.5329 41.482 23.5511 41.2061 21.5798C41.1037 21.2647 40.92 21.008 40.6555 20.8091C39.4506 20.043 38.3128 19.1988 37.2424 18.2768C37.8473 31.1555 36.1592 43.7071 32.1778 55.9314C29.3085 69.7508 30.9233 82.963 37.0222 95.5678C37.9649 97.0244 38.9924 98.419 40.105 99.7516C41.4289 100.966 42.7133 102.213 43.9586 103.495C38.459 107.563 32.9907 111.674 27.5535 115.826C25.8591 115.237 24.4645 114.209 23.3697 112.744C12.4606 98.4782 7.76283 82.3299 9.27672 64.2991C9.68784 60.6721 10.2749 57.0753 11.0383 53.5092C12.1087 49.636 13.1364 45.7459 14.1212 41.8384C15.8361 33.0876 16.203 24.2795 15.2222 15.4142C14.7937 12.3745 14.2799 9.3652 13.6808 6.38587C15.8857 5.02612 18.161 3.77845 20.507 2.64243C22.5811 9.77852 23.6454 17.082 23.7 24.5526C23.5381 35.0401 21.8866 45.2795 18.7454 55.2708C15.2466 70.2322 16.788 84.6189 23.3697 98.4304C24.2326 99.7891 25.0401 101.184 25.7919 102.614C26.4584 103.644 27.1924 104.599 27.9939 105.477C29.4849 104.501 30.9162 103.436 32.2879 102.284C28.2696 96.7018 25.5904 90.4994 24.2505 83.6769C21.5882 70.7743 22.469 58.1493 26.8929 45.8021C29.4457 35.3548 30.033 24.7851 28.6545 14.0929C27.8625 9.98992 26.9081 5.95295 25.7919 1.98182C30.6185 5.0739 35.4262 8.19351 40.2151 11.3404C50.8304 20.9219 56.1886 32.9229 56.2899 47.3435C56.1562 52.1811 55.5322 56.9522 54.4182 61.6566C51.3787 70.2663 49.6537 79.1478 49.2434 88.3011C49.3346 90.2935 49.518 92.2753 49.7939 94.2466C49.8963 94.5617 50.08 94.8185 50.3444 95.0173C51.5494 95.7834 52.6872 96.6276 53.7576 97.5496C53.1527 84.6709 54.8408 72.1193 58.8222 59.895C61.6915 46.0756 60.0767 32.8634 53.9778 20.2586C53.0351 18.802 52.0076 17.4074 50.895 16.0748C49.5711 14.8608 48.2867 13.6131 47.0414 12.3313C52.5449 8.29326 57.9764 4.18274 63.3364 0ZM47.9222 41.8384C48.696 47.6645 48.3657 53.4631 46.9313 59.2344C45.3595 64.0839 44.0383 69.0017 42.9677 73.988C42.3044 68.1235 42.6713 62.325 44.0687 56.592C45.6742 51.7566 46.9588 46.8386 47.9222 41.8384Z" fill="#FEFFFE"/>
<path d="M131.062 81.768C127.521 81.768 124.299 80.9787 121.398 79.4C118.497 77.7787 116.193 75.432 114.486 72.36C112.779 69.2453 111.926 65.448 111.926 60.968C111.926 57.4693 112.395 54.4187 113.334 51.816C114.273 49.2133 115.531 47.0373 117.11 45.288C118.731 43.496 120.523 42.0667 122.486 41C124.491 39.8907 126.539 39.1013 128.63 38.632C130.763 38.12 132.811 37.864 134.774 37.864C138.358 37.864 141.601 38.6533 144.502 40.232C147.403 41.8107 149.707 44.136 151.414 47.208C153.121 50.28 153.974 54.056 153.974 58.536C153.974 62.0347 153.505 65.0853 152.566 67.688C151.627 70.2907 150.347 72.488 148.726 74.28C147.105 76.072 145.291 77.5227 143.286 78.632C141.323 79.7413 139.275 80.5307 137.142 81C135.051 81.512 133.025 81.768 131.062 81.768ZM132.918 79.656C135.478 79.656 137.654 79.0373 139.446 77.8C141.281 76.5627 142.753 74.9627 143.862 73C145.014 71.0373 145.846 68.904 146.358 66.6C146.913 64.296 147.19 62.0987 147.19 60.008C147.19 57.3627 146.913 54.8667 146.358 52.52C145.846 50.1307 144.971 48.04 143.734 46.248C142.539 44.456 140.918 43.048 138.87 42.024C136.865 41 134.347 40.488 131.318 40.488C128.459 41.4693 126.091 42.9627 124.214 44.968C122.337 46.9733 120.95 49.2773 120.054 51.88C119.158 54.4827 118.71 57.192 118.71 60.008C118.71 62.6107 118.966 65.1067 119.478 67.496C120.033 69.8427 120.865 71.9333 121.974 73.768C123.083 75.6027 124.534 77.0533 126.326 78.12C128.161 79.144 130.358 79.656 132.918 79.656ZM164.125 81.704C163.144 81.704 162.312 81.3627 161.629 80.68C160.946 79.9973 160.605 79.1653 160.605 78.184C160.605 77.2027 160.946 76.3707 161.629 75.688C162.312 74.9627 163.144 74.6 164.125 74.6C165.106 74.6 165.938 74.9627 166.621 75.688C167.346 76.3707 167.709 77.2027 167.709 78.184C167.709 79.1653 167.346 79.9973 166.621 80.68C165.938 81.3627 165.106 81.704 164.125 81.704ZM188.893 81.768C186.376 81.768 183.986 81.4693 181.725 80.872C179.506 80.2747 177.778 79.7413 176.541 79.272V76.264C177.266 76.6053 178.248 77.0533 179.485 77.608C180.722 78.12 182.088 78.568 183.581 78.952C185.074 79.336 186.525 79.528 187.933 79.528C190.749 79.528 193.01 78.8027 194.717 77.352C196.466 75.8587 197.341 73.768 197.341 71.08C197.341 69.416 196.85 67.9867 195.869 66.792C194.888 65.5973 193.608 64.5093 192.029 63.528C190.493 62.5467 188.85 61.608 187.101 60.712C185.352 59.7733 183.688 58.7707 182.109 57.704C180.573 56.5947 179.314 55.3147 178.333 53.864C177.352 52.3707 176.861 50.6213 176.861 48.616C176.861 46.952 177.309 45.3093 178.205 43.688C179.101 42.024 180.53 40.6373 182.493 39.528C184.456 38.4187 187.037 37.864 190.237 37.864C191.986 37.864 193.885 38.0773 195.933 38.504C197.981 38.9307 199.752 39.3787 201.245 39.848L200.605 44.2C198.13 43.1333 195.677 42.2587 193.245 41.576C190.813 40.8507 188.338 40.488 185.821 40.488C184.584 41.0853 183.709 41.8747 183.197 42.856C182.728 43.7947 182.493 44.84 182.493 45.992C182.493 47.6987 183.005 49.2133 184.029 50.536C185.053 51.816 186.376 53.0107 187.997 54.12C189.661 55.1867 191.389 56.232 193.181 57.256C195.016 58.28 196.744 59.3893 198.365 60.584C200.029 61.7787 201.373 63.1227 202.397 64.616C203.421 66.1093 203.933 67.8587 203.933 69.864C203.933 72.0827 203.378 74.1093 202.269 75.944C201.16 77.736 199.496 79.1653 197.277 80.232C195.058 81.256 192.264 81.768 188.893 81.768ZM215.688 81.704C214.706 81.704 213.874 81.3627 213.192 80.68C212.509 79.9973 212.168 79.1653 212.168 78.184C212.168 77.2027 212.509 76.3707 213.192 75.688C213.874 74.9627 214.706 74.6 215.688 74.6C216.669 74.6 217.501 74.9627 218.184 75.688C218.909 76.3707 219.272 77.2027 219.272 78.184C219.272 79.1653 218.909 79.9973 218.184 80.68C217.501 81.3627 216.669 81.704 215.688 81.704ZM249.224 81.768C246.237 81.768 243.336 81.3627 240.52 80.552C237.746 79.6987 235.229 78.4187 232.968 76.712C230.749 75.0053 228.978 72.8507 227.656 70.248C226.376 67.6453 225.736 64.5733 225.736 61.032C225.736 56.936 226.482 53.4373 227.976 50.536C229.512 47.592 231.496 45.1813 233.928 43.304C236.402 41.4267 239.069 40.0613 241.928 39.208C244.829 38.312 247.645 37.864 250.376 37.864C251.698 37.864 253.085 37.9707 254.536 38.184C255.986 38.3973 257.33 38.6533 258.568 38.952C259.805 39.2507 260.765 39.5493 261.448 39.848L260.808 44.136C258.333 43.0693 255.944 42.1947 253.64 41.512C251.336 40.8293 248.946 40.488 246.472 40.488C242.205 41.5547 238.813 43.8373 236.296 47.336C233.778 50.792 232.52 55.016 232.52 60.008C232.52 64.2747 233.288 67.8587 234.824 70.76C236.402 73.6613 238.536 75.8587 241.224 77.352C243.912 78.8027 246.984 79.528 250.44 79.528C251.421 79.528 252.402 79.4853 253.384 79.4C254.365 79.272 255.325 79.1013 256.264 78.888V62.76H262.472V79.592C261.192 80.104 259.762 80.5307 258.184 80.872C256.605 81.1707 255.026 81.384 253.448 81.512C251.912 81.6827 250.504 81.768 249.224 81.768ZM275.188 81.704C274.206 81.704 273.374 81.3627 272.692 80.68C272.009 79.9973 271.668 79.1653 271.668 78.184C271.668 77.2027 272.009 76.3707 272.692 75.688C273.374 74.9627 274.206 74.6 275.188 74.6C276.169 74.6 277.001 74.9627 277.684 75.688C278.409 76.3707 278.772 77.2027 278.772 78.184C278.772 79.1653 278.409 79.9973 277.684 80.68C277.001 81.3627 276.169 81.704 275.188 81.704ZM303.86 81.768C300.702 81.768 298.121 81.3413 296.116 80.488C294.11 79.592 292.532 78.4827 291.38 77.16C290.27 75.7947 289.481 74.3653 289.012 72.872C288.542 71.336 288.244 69.9067 288.116 68.584C288.03 67.2613 287.988 66.216 287.988 65.448V38.632H294.516V65.96C294.516 66.7707 294.537 67.752 294.58 68.904C294.665 70.0133 294.878 71.144 295.22 72.296C295.561 73.448 296.116 74.536 296.884 75.56C297.694 76.584 298.804 77.416 300.212 78.056C301.62 78.6533 303.433 78.952 305.652 78.952C309.321 78.952 312.222 77.9707 314.356 76.008C316.532 74.0453 317.62 70.76 317.62 66.152V38.632H320.436V64.616C320.436 65.64 320.372 66.8773 320.244 68.328C320.158 69.7787 319.86 71.2933 319.347 72.872C318.878 74.408 318.046 75.8587 316.852 77.224C315.7 78.5893 314.078 79.6987 311.988 80.552C309.897 81.3627 307.188 81.768 303.86 81.768ZM333.25 81.704C332.269 81.704 331.437 81.3627 330.754 80.68C330.071 79.9973 329.73 79.1653 329.73 78.184C329.73 77.2027 330.071 76.3707 330.754 75.688C331.437 74.9627 332.269 74.6 333.25 74.6C334.231 74.6 335.063 74.9627 335.746 75.688C336.471 76.3707 336.834 77.2027 336.834 78.184C336.834 79.1653 336.471 79.9973 335.746 80.68C335.063 81.3627 334.231 81.704 333.25 81.704Z" fill="white"/>
</svg>
