<?xml version="1.0" encoding="UTF-8"?>
<svg id="_图层_2" data-name="图层 2" xmlns="http://www.w3.org/2000/svg" viewBox="0 0 331.51 526">
  <defs>
    <style>
      .cls-1 {
        fill: #222;
        fill-rule: evenodd;
        isolation: isolate;
        opacity: 1;
        stroke-width: 0px;
      }
    </style>
  </defs>
  <g id="_图层_1-2" data-name="图层 1">
    <path class="cls-1" d="m246.76,0c7.97,2.45,14.47,7.12,19.5,14,49.54,64.78,70.88,138.12,64,220-1.87,16.47-4.53,32.8-8,49-4.86,17.59-9.53,35.26-14,53-7.79,39.74-9.45,79.74-5,120,1.95,13.8,4.28,27.47,7,41-10.01,6.17-20.35,11.84-31,17-9.42-32.41-14.25-65.57-14.5-99.5.73-47.63,8.23-94.13,22.5-139.5,15.89-67.94,8.89-133.28-21-196-3.92-6.17-7.59-12.5-11-19-3.03-4.68-6.36-9.01-10-13-6.77,4.43-13.27,9.27-19.5,14.5,18.25,25.35,30.41,53.52,36.5,84.5,12.09,58.59,8.09,115.93-12,172-11.59,47.44-14.26,95.44-8,144,3.6,18.63,7.93,36.97,13,55-17.17-11.17-34.33-22.33-51.5-33.5-11.83-9.83-23.67-19.67-35.5-29.5-39.4-49.15-56.07-105.48-50-169,1.79-13.1,4.13-26.1,7-39,13.8-39.1,21.64-79.43,23.5-121-.41-9.05-1.25-18.05-2.5-27-.46-1.43-1.3-2.6-2.5-3.5-5.47-3.48-10.64-7.31-15.5-11.5,2.75,58.49-4.92,115.49-23,171-13.03,62.76-5.7,122.76,22,180,4.28,6.61,8.95,12.95,14,19,6.01,5.51,11.85,11.18,17.5,17-24.98,18.47-49.81,37.14-74.5,56-7.7-2.68-14.03-7.34-19-14C15.72,447.22-5.62,373.88,1.26,292c1.87-16.47,4.53-32.8,8-49,4.86-17.59,9.53-35.26,14-53,7.79-39.74,9.45-79.74,5-120-1.95-13.8-4.28-27.47-7-41,10.01-6.17,20.35-11.84,31-17,9.42,32.41,14.25,65.57,14.5,99.5-.73,47.63-8.23,94.13-22.5,139.5-15.89,67.94-8.89,133.28,21,196,3.92,6.17,7.59,12.5,11,19,3.03,4.68,6.36,9.01,10,13,6.77-4.43,13.27-9.27,19.5-14.5-18.25-25.35-30.42-53.52-36.5-84.5-12.09-58.59-8.09-115.93,12-172,11.59-47.44,14.26-95.44,8-144-3.6-18.63-7.93-36.97-13-55,21.92,14.04,43.75,28.21,65.5,42.5,48.21,43.51,72.54,98.01,73,163.5-.61,21.97-3.44,43.64-8.5,65-13.8,39.1-21.64,79.43-23.5,121,.41,9.05,1.25,18.05,2.5,27,.47,1.43,1.3,2.6,2.5,3.5,5.47,3.48,10.64,7.31,15.5,11.5-2.75-58.49,4.92-115.49,23-171,13.03-62.76,5.7-122.76-22-180-4.28-6.61-8.95-12.95-14-19-6.01-5.51-11.84-11.18-17.5-17,24.99-18.34,49.66-37.01,74-56Zm-70,190c3.51,26.46,2.01,52.79-4.5,79-7.14,22.02-13.14,44.36-18,67-3.01-26.63-1.35-52.97,5-79,7.29-21.96,13.12-44.29,17.5-67Z"/>
  </g>
</svg>